<svg xmlns="http://www.w3.org/2000/svg" viewBox="0 0 1200 630">
  <!-- Background - Dark zinc like the app -->
  <rect width="1200" height="630" fill="#09090B"/>
  
  <!-- Subtle gradient overlay -->
  <defs>
    <linearGradient id="bgGrad" x1="0%" y1="0%" x2="100%" y2="100%">
      <stop offset="0%" style="stop-color:#FF5500;stop-opacity:0.1" />
      <stop offset="100%" style="stop-color:#09090B;stop-opacity:0" />
    </linearGradient>
  </defs>
  <rect width="1200" height="630" fill="url(#bgGrad)"/>
  
  <!-- Orange Logo Container - positioned left side -->
  <g transform="translate(80, 65)">
    <!-- Background rectangle for logo -->
    <rect width="500" height="500" rx="100" fill="#FFF5E6"/>
    
    <!-- Orange pixel art - centered within 500x500 (offset by ~6px to center the ~488px wide orange) -->
    <g transform="translate(6, -4)">
      <!-- Stem (dark brown) -->
      <rect x="240" y="96" width="32" height="32" fill="#8B4513"/>
      
      <!-- Leaf (green) -->
      <rect x="272" y="96" width="32" height="32" fill="#22C55E"/>
      <rect x="304" y="96" width="32" height="32" fill="#22C55E"/>
      <rect x="272" y="128" width="32" height="32" fill="#22C55E"/>
      <rect x="304" y="128" width="32" height="32" fill="#16A34A"/>
      <rect x="336" y="128" width="32" height="32" fill="#16A34A"/>
      
      <!-- Orange body - Row 1 (top) -->
      <rect x="208" y="128" width="32" height="32" fill="#FF5500"/>
      <rect x="240" y="128" width="32" height="32" fill="#FF5500"/>
      
      <!-- Orange body - Row 2 -->
      <rect x="176" y="160" width="32" height="32" fill="#FF5500"/>
      <rect x="208" y="160" width="32" height="32" fill="#FF6B1A"/>
      <rect x="240" y="160" width="32" height="32" fill="#FF6B1A"/>
      <rect x="272" y="160" width="32" height="32" fill="#FF5500"/>
      <rect x="304" y="160" width="32" height="32" fill="#FF5500"/>
      
      <!-- Orange body - Row 3 -->
      <rect x="144" y="192" width="32" height="32" fill="#FF5500"/>
      <rect x="176" y="192" width="32" height="32" fill="#FF6B1A"/>
      <rect x="208" y="192" width="32" height="32" fill="#FF8533"/>
      <rect x="240" y="192" width="32" height="32" fill="#FF8533"/>
      <rect x="272" y="192" width="32" height="32" fill="#FF6B1A"/>
      <rect x="304" y="192" width="32" height="32" fill="#FF5500"/>
      <rect x="336" y="192" width="32" height="32" fill="#E04D00"/>
      
      <!-- Orange body - Row 4 -->
      <rect x="112" y="224" width="32" height="32" fill="#FF5500"/>
      <rect x="144" y="224" width="32" height="32" fill="#FF6B1A"/>
      <rect x="176" y="224" width="32" height="32" fill="#FF8533"/>
      <rect x="208" y="224" width="32" height="32" fill="#FFAA66"/>
      <rect x="240" y="224" width="32" height="32" fill="#FF8533"/>
      <rect x="272" y="224" width="32" height="32" fill="#FF6B1A"/>
      <rect x="304" y="224" width="32" height="32" fill="#FF5500"/>
      <rect x="336" y="224" width="32" height="32" fill="#E04D00"/>
      <rect x="368" y="224" width="32" height="32" fill="#E04D00"/>
      
      <!-- Orange body - Row 5 -->
      <rect x="112" y="256" width="32" height="32" fill="#FF5500"/>
      <rect x="144" y="256" width="32" height="32" fill="#FF6B1A"/>
      <rect x="176" y="256" width="32" height="32" fill="#FF8533"/>
      <rect x="208" y="256" width="32" height="32" fill="#FF8533"/>
      <rect x="240" y="256" width="32" height="32" fill="#FF6B1A"/>
      <rect x="272" y="256" width="32" height="32" fill="#FF6B1A"/>
      <rect x="304" y="256" width="32" height="32" fill="#FF5500"/>
      <rect x="336" y="256" width="32" height="32" fill="#E04D00"/>
      <rect x="368" y="256" width="32" height="32" fill="#E04D00"/>
      
      <!-- Orange body - Row 6 -->
      <rect x="112" y="288" width="32" height="32" fill="#FF5500"/>
      <rect x="144" y="288" width="32" height="32" fill="#FF6B1A"/>
      <rect x="176" y="288" width="32" height="32" fill="#FF6B1A"/>
      <rect x="208" y="288" width="32" height="32" fill="#FF6B1A"/>
      <rect x="240" y="288" width="32" height="32" fill="#FF5500"/>
      <rect x="272" y="288" width="32" height="32" fill="#FF5500"/>
      <rect x="304" y="288" width="32" height="32" fill="#E04D00"/>
      <rect x="336" y="288" width="32" height="32" fill="#E04D00"/>
      <rect x="368" y="288" width="32" height="32" fill="#CC4400"/>
      
      <!-- Orange body - Row 7 -->
      <rect x="144" y="320" width="32" height="32" fill="#FF5500"/>
      <rect x="176" y="320" width="32" height="32" fill="#FF5500"/>
      <rect x="208" y="320" width="32" height="32" fill="#FF5500"/>
      <rect x="240" y="320" width="32" height="32" fill="#E04D00"/>
      <rect x="272" y="320" width="32" height="32" fill="#E04D00"/>
      <rect x="304" y="320" width="32" height="32" fill="#E04D00"/>
      <rect x="336" y="320" width="32" height="32" fill="#CC4400"/>
      
      <!-- Orange body - Row 8 -->
      <rect x="176" y="352" width="32" height="32" fill="#E04D00"/>
      <rect x="208" y="352" width="32" height="32" fill="#E04D00"/>
      <rect x="240" y="352" width="32" height="32" fill="#E04D00"/>
      <rect x="272" y="352" width="32" height="32" fill="#CC4400"/>
      <rect x="304" y="352" width="32" height="32" fill="#CC4400"/>
      
      <!-- Orange body - Row 9 (bottom) -->
      <rect x="208" y="384" width="32" height="32" fill="#CC4400"/>
      <rect x="240" y="384" width="32" height="32" fill="#CC4400"/>
      <rect x="272" y="384" width="32" height="32" fill="#CC4400"/>
    </g>
  </g>
  
  <!-- Text: Spritz -->
  <text x="620" y="280" font-family="system-ui, -apple-system, sans-serif" font-size="120" font-weight="bold" fill="#FFFFFF">Spritz</text>
  
  <!-- Tagline -->
  <text x="620" y="360" font-family="system-ui, -apple-system, sans-serif" font-size="36" fill="#A1A1AA">Censorship-Resistant Chat for Web3</text>
  
  <!-- Features -->
  <text x="620" y="440" font-family="system-ui, -apple-system, sans-serif" font-size="24" fill="#71717A">🔐 Passkeys &amp; Wallets</text>
  <text x="620" y="480" font-family="system-ui, -apple-system, sans-serif" font-size="24" fill="#71717A">📹 HD Video Calls &amp; Livestreaming</text>
  <text x="620" y="520" font-family="system-ui, -apple-system, sans-serif" font-size="24" fill="#71717A">🤖 AI Agents</text>
  
  <!-- URL -->
  <text x="620" y="580" font-family="system-ui, -apple-system, sans-serif" font-size="28" fill="#FF5500">app.spritz.chat</text>
</svg>
