<svg xmlns="http://www.w3.org/2000/svg" viewBox="0 0 1200 630">
  <!-- Background gradient -->
  <defs>
    <linearGradient id="bg" x1="0%" y1="0%" x2="100%" y2="100%">
      <stop offset="0%" style="stop-color:#18181B"/>
      <stop offset="100%" style="stop-color:#27272A"/>
    </linearGradient>
  </defs>
  <rect width="1200" height="630" fill="url(#bg)"/>
  
  <!-- Subtle grid pattern -->
  <defs>
    <pattern id="grid" width="40" height="40" patternUnits="userSpaceOnUse">
      <path d="M 40 0 L 0 0 0 40" fill="none" stroke="#3F3F46" stroke-width="0.5"/>
    </pattern>
  </defs>
  <rect width="1200" height="630" fill="url(#grid)" opacity="0.3"/>
  
  <!-- Logo container -->
  <g transform="translate(500, 165)">
    <!-- Icon background -->
    <rect width="200" height="200" rx="42" fill="#FFF5E6"/>
    
    <!-- 8-bit Orange - scaled down from 512 to 200 -->
    <g transform="scale(0.39)">
      <!-- Stem (dark brown) -->
      <rect x="240" y="96" width="32" height="32" fill="#8B4513"/>
      
      <!-- Leaf (green) -->
      <rect x="272" y="96" width="32" height="32" fill="#22C55E"/>
      <rect x="304" y="96" width="32" height="32" fill="#22C55E"/>
      <rect x="272" y="128" width="32" height="32" fill="#22C55E"/>
      <rect x="304" y="128" width="32" height="32" fill="#16A34A"/>
      <rect x="336" y="128" width="32" height="32" fill="#16A34A"/>
      
      <!-- Orange body - Row 1 (top) -->
      <rect x="208" y="128" width="32" height="32" fill="#FF5500"/>
      <rect x="240" y="128" width="32" height="32" fill="#FF5500"/>
      
      <!-- Orange body - Row 2 -->
      <rect x="176" y="160" width="32" height="32" fill="#FF5500"/>
      <rect x="208" y="160" width="32" height="32" fill="#FF6B1A"/>
      <rect x="240" y="160" width="32" height="32" fill="#FF6B1A"/>
      <rect x="272" y="160" width="32" height="32" fill="#FF5500"/>
      <rect x="304" y="160" width="32" height="32" fill="#FF5500"/>
      
      <!-- Orange body - Row 3 -->
      <rect x="144" y="192" width="32" height="32" fill="#FF5500"/>
      <rect x="176" y="192" width="32" height="32" fill="#FF6B1A"/>
      <rect x="208" y="192" width="32" height="32" fill="#FF8533"/>
      <rect x="240" y="192" width="32" height="32" fill="#FF8533"/>
      <rect x="272" y="192" width="32" height="32" fill="#FF6B1A"/>
      <rect x="304" y="192" width="32" height="32" fill="#FF5500"/>
      <rect x="336" y="192" width="32" height="32" fill="#E04D00"/>
      
      <!-- Orange body - Row 4 -->
      <rect x="112" y="224" width="32" height="32" fill="#FF5500"/>
      <rect x="144" y="224" width="32" height="32" fill="#FF6B1A"/>
      <rect x="176" y="224" width="32" height="32" fill="#FF8533"/>
      <rect x="208" y="224" width="32" height="32" fill="#FFAA66"/>
      <rect x="240" y="224" width="32" height="32" fill="#FF8533"/>
      <rect x="272" y="224" width="32" height="32" fill="#FF6B1A"/>
      <rect x="304" y="224" width="32" height="32" fill="#FF5500"/>
      <rect x="336" y="224" width="32" height="32" fill="#E04D00"/>
      <rect x="368" y="224" width="32" height="32" fill="#E04D00"/>
      
      <!-- Orange body - Row 5 -->
      <rect x="112" y="256" width="32" height="32" fill="#FF5500"/>
      <rect x="144" y="256" width="32" height="32" fill="#FF6B1A"/>
      <rect x="176" y="256" width="32" height="32" fill="#FF8533"/>
      <rect x="208" y="256" width="32" height="32" fill="#FF8533"/>
      <rect x="240" y="256" width="32" height="32" fill="#FF6B1A"/>
      <rect x="272" y="256" width="32" height="32" fill="#FF6B1A"/>
      <rect x="304" y="256" width="32" height="32" fill="#FF5500"/>
      <rect x="336" y="256" width="32" height="32" fill="#E04D00"/>
      <rect x="368" y="256" width="32" height="32" fill="#E04D00"/>
      
      <!-- Orange body - Row 6 -->
      <rect x="112" y="288" width="32" height="32" fill="#FF5500"/>
      <rect x="144" y="288" width="32" height="32" fill="#FF6B1A"/>
      <rect x="176" y="288" width="32" height="32" fill="#FF6B1A"/>
      <rect x="208" y="288" width="32" height="32" fill="#FF6B1A"/>
      <rect x="240" y="288" width="32" height="32" fill="#FF5500"/>
      <rect x="272" y="288" width="32" height="32" fill="#FF5500"/>
      <rect x="304" y="288" width="32" height="32" fill="#E04D00"/>
      <rect x="336" y="288" width="32" height="32" fill="#E04D00"/>
      <rect x="368" y="288" width="32" height="32" fill="#CC4400"/>
      
      <!-- Orange body - Row 7 -->
      <rect x="144" y="320" width="32" height="32" fill="#FF5500"/>
      <rect x="176" y="320" width="32" height="32" fill="#FF5500"/>
      <rect x="208" y="320" width="32" height="32" fill="#FF5500"/>
      <rect x="240" y="320" width="32" height="32" fill="#E04D00"/>
      <rect x="272" y="320" width="32" height="32" fill="#E04D00"/>
      <rect x="304" y="320" width="32" height="32" fill="#E04D00"/>
      <rect x="336" y="320" width="32" height="32" fill="#CC4400"/>
      
      <!-- Orange body - Row 8 -->
      <rect x="176" y="352" width="32" height="32" fill="#E04D00"/>
      <rect x="208" y="352" width="32" height="32" fill="#E04D00"/>
      <rect x="240" y="352" width="32" height="32" fill="#E04D00"/>
      <rect x="272" y="352" width="32" height="32" fill="#CC4400"/>
      <rect x="304" y="352" width="32" height="32" fill="#CC4400"/>
      
      <!-- Orange body - Row 9 (bottom) -->
      <rect x="208" y="384" width="32" height="32" fill="#CC4400"/>
      <rect x="240" y="384" width="32" height="32" fill="#CC4400"/>
      <rect x="272" y="384" width="32" height="32" fill="#CC4400"/>
    </g>
  </g>
  
  <!-- App name -->
  <text x="600" y="430" font-family="system-ui, -apple-system, sans-serif" font-size="72" font-weight="700" fill="white" text-anchor="middle">Spritz</text>
  
  <!-- Tagline -->
  <text x="600" y="490" font-family="system-ui, -apple-system, sans-serif" font-size="28" fill="#A1A1AA" text-anchor="middle">Censorship-Resistant Chat for Web3</text>
  
  <!-- URL -->
  <text x="600" y="580" font-family="monospace" font-size="20" fill="#52525B" text-anchor="middle">app.spritz.chat</text>
</svg>

